<?xml version="1.0" standalone="no"?><!DOCTYPE svg PUBLIC "-//W3C//DTD SVG 1.1//EN" "http://www.w3.org/Graphics/SVG/1.1/DTD/svg11.dtd"><svg t="1667114044570" class="icon" viewBox="0 0 1024 1024" version="1.1" xmlns="http://www.w3.org/2000/svg" p-id="1957" xmlns:xlink="http://www.w3.org/1999/xlink" width="200" height="200"><path d="M810.666667 768c0 23.552-19.157333 42.666667-42.666667 42.666667H273.664l170.666667-170.666667H512a42.666667 42.666667 0 1 0 0-85.333333h-42.666667v-42.666667a42.666667 42.666667 0 1 0-85.333333 0v67.669333l-170.666667 170.666667V256c0-23.552 19.157333-42.666667 42.666667-42.666667h447.317333l-91.434666 213.333334H554.666667a42.666667 42.666667 0 1 0 0 85.333333h42.666666v42.666667a42.666667 42.666667 0 1 0 85.333334 0v-76.629334l109.738666-256.085333A41.898667 41.898667 0 0 1 810.666667 256v512z m-41.557334-639.872c-0.469333-0.042667-0.896-0.128-1.365333-0.128H256C185.429333 128 128 185.429333 128 256v512c0 70.570667 57.429333 128 128 128h512c70.570667 0 128-57.429333 128-128V256a128 128 0 0 0-126.890667-127.872z m-397.610666 183.04a42.624 42.624 0 1 0-60.330667 60.330667l42.666667 42.666666a42.538667 42.538667 0 0 0 60.330666 0 42.624 42.624 0 0 0 0-60.330666l-42.666666-42.666667z m298.666666 341.333333a42.624 42.624 0 1 0-60.330666 60.330667l42.666666 42.666667a42.538667 42.538667 0 0 0 60.330667 0 42.624 42.624 0 0 0 0-60.330667l-42.666667-42.666667zM554.666667 341.333333V298.666667a42.666667 42.666667 0 1 0-85.333334 0v42.666666a42.666667 42.666667 0 1 0 85.333334 0" fill="#19fa86" p-id="1958"></path></svg>